<svg width="108" height="96" viewBox="0 0 108 96" xmlns="http://www.w3.org/2000/svg" xmlns:xlink="http://www.w3.org/1999/xlink"><defs><linearGradient x1="88.164%" y1="21.946%" x2="8.566%" y2="89.331%" id="c"><stop stop-color="#DEF927" offset="0%"/><stop stop-color="#31AFFF" offset="100%"/></linearGradient><filter x="-7%" y="-5.6%" width="114%" height="115.8%" filterUnits="objectBoundingBox" id="a"><feOffset dy="2" in="SourceAlpha" result="shadowOffsetOuter1"/><feGaussianBlur stdDeviation="2" in="shadowOffsetOuter1" result="shadowBlurOuter1"/><feColorMatrix values="0 0 0 0 0 0 0 0 0 0 0 0 0 0 0 0 0 0 0.15 0" in="shadowBlurOuter1"/></filter><path d="M54 2c27.614 0 50 22.386 50 50 0 15.595-7.14 29.523-18.329 38.692-1.138-3.448-2.544-6.678-4.178-9.638C89.195 73.764 94 63.444 94 52c0-22.091-17.909-40-40-40S14 29.909 14 52c0 11.443 4.805 21.764 12.508 29.055-1.635 2.959-3.04 6.189-4.18 9.635C11.14 81.523 4 67.595 4 52 4 24.386 26.386 2 54 2zm0 20c16.569 0 30 13.431 30 30a29.899 29.899 0 01-8.325 20.742c-2.314-2.614-4.866-4.817-7.6-6.534A19.934 19.934 0 0074 52c0-11.046-8.954-20-20-20s-20 8.954-20 20a19.938 19.938 0 005.924 14.208c-2.733 1.717-5.285 3.92-7.6 6.531A29.891 29.891 0 0124 52c0-16.569 13.431-30 30-30zm0 20c5.523 0 10 4.477 10 10s-4.477 10-10 10-10-4.477-10-10 4.477-10 10-10z" id="b"/></defs><g fill="none" fill-rule="evenodd"><use fill="#000" filter="url(#a)" xlink:href="#b"/><use fill="url(#c)" xlink:href="#b"/></g></svg>
